<?xml version="1.0" encoding="utf-8"?>
<svg id="master-artboard" xmlns="http://www.w3.org/2000/svg" viewBox="0 0 500 500" width="500px" height="500px"><g transform="matrix(0.9083147057845192, 0, 0, 0.9083147057845192, 0.000009809222319745459, 194.05687860360402)"><path d="M 85.18161010742188 190.17686462402344" style="fill: rgb(11, 46, 77); fill-opacity: 1; stroke: rgb(170, 170, 170); stroke-opacity: 1; stroke-width: 1; paint-order: stroke;"/><path d="M 193.00172424316406 180.71157836914062" style="fill: rgb(11, 46, 77); fill-opacity: 1; stroke: rgb(170, 170, 170); stroke-opacity: 1; stroke-width: 1; paint-order: stroke;"/><path d="M 156.09194946289062 87.28517150878906 L 156.09194946289062 87.28517150878906" style="fill: rgb(11, 46, 77); fill-opacity: 1; stroke: rgb(170, 170, 170); stroke-opacity: 1; stroke-width: 1; paint-order: stroke;"/></g><g transform="matrix(0.9398844838142396, 0, 0, 0.9398844838142396, 47.14475977766193, 57.09546868466907)"><path class="cls-1" d="M262.67,109h87.64l-19.73-36.5-.23-.23s-2.36-5-9.45-5.08h-.36c-12,.35-25.74.59-39.91.71h-33.9c-14.17-.12-27.87-.36-40-.71h-.11c-7.21.12-9.69,5.08-9.69,5.08l-.12.23L177.05,109ZM207.52,51.73h-1.06a26.37,26.37,0,0,0-23.62,13.46h0L159,109h-5.79V99.56s.59-5-2.71-4.73a3.72,3.72,0,0,0-1.54.24c-4.6,1.54-12.28,3.54-12.28,3.54a5.33,5.33,0,0,0-3.07,5.08c-.12,3.9-.12,6.61-.12,6.61s-.35,2.25,4.37,2.49H142c4.14,0,9.69-.12,12.52-.12H155c.59,0,1.06,0,1.06.12s-15.71,17.59-15.71,17.59-5.67,5.32-3.9,26.58,3.78,73.69,3.78,73.69-.35,8.62,5.44,9c.94.12,2.71.12,5,.12h3.89c8.15,0,19.84-.24,26.93-.24h2.72c2,0,3.3.12,3.3.12s.24.23.59.12c.59.23,3.31-.6,4.73-2.37,1.77-2,1.18-11.93,1.18-11.93s0-1.41,4-1.41c.24,0,.83-.12,1.66-.12h55.62l.36.12h15.59l2.6-.12h54l1.65.12c4,0,4,1.41,4,1.41s-.59,9.93,1.18,11.93c1.42,1.77,4.13,2.6,4.72,2.37.36.11.59,0,.59-.12s1.18-.12,3.31-.12h2.72c7.08,0,18.77.24,26.92.24h3.9c2.25,0,4,0,5-.12,5.67-.36,5.43-9,5.43-9s2.13-52.44,3.78-73.69-4-26.58-4-26.58S371.33,113,371.33,112.79s.59-.12,1.53-.12h.95c2.6,0,6.61.12,10.16.12h5.55c4.72-.24,4.37-2.49,4.37-2.49s0-2.71-.12-6.61a5.33,5.33,0,0,0-3.07-5.08s-7.68-2-12.29-3.54a3.68,3.68,0,0,0-1.53-.24c-3.31-.23-2.72,4.73-2.72,4.73V109h-5.78L344.52,65.19h0a26.46,26.46,0,0,0-23.74-13.46h-1.06c-15.24.47-31.18.7-47.24.82h-17.6c-16.06-.12-32-.35-47.36-.82ZM230.2,199.12a5.54,5.54,0,0,1-5.55-5.55h0a5.65,5.65,0,0,1,5.55-5.67h67.08a5.71,5.71,0,0,1,5.43,5.67h0a5.54,5.54,0,0,1-5.55,5.55h-67Zm-9.92-25c-3.78,0-5.08-3.42-6.85-6.85l-9.1-17.95c-1.65-3.31,3.07-6.85,6.85-6.85H316.29c3.66.12,8.39,3.54,6.73,6.85l-9.21,17.95c-1.65,3.43-2.95,6.85-6.73,6.85h-86.8ZM329.05,160.5c.71-4.49,2.12-10.28,5.08-12.4,3.78-4.49,17.71-9.1,28-9.21h1.06c7.56.35,22.68,8.62,14.05,16.53a20.4,20.4,0,0,1-9.44,5.2ZM165,138.89h-.82c-7.56.35-22.68,8.62-14.06,16.53,4.85,4.49,9.33,5.2,9.45,5.2h0l38.74-.12c-.71-4.49-2.13-10.28-5.08-12.4-3.78-4.49-17.71-9.1-28-9.21H165ZM264.33,224h0" transform="translate(-47.85 -51.73)" style="fill: rgb(133, 139, 139); fill-rule: evenodd;"/><path class="cls-2" d="M260.67,262.18c-9.92,7.44-24.1,19.14-18.19,22.33,7,3.78,14.76-1.54,21.38-5.91,5.43-3.66,10.39-6.85,15.11-5.79,6.38,1.18,24.69,16.54,50.2,31.66-13.47,15.58-14.53,21.25-10.51,23.5,7.2,4.25,45-10.63,52.31-14.65,63.9-24.68,107-71,107-123.89,0-42.63-27.87-80.9-72.16-107.12-.47.48-1.06,1-1.53,1.42l.35.71c31.54,21.14,50.91,49.6,50.91,80.66,0,63-97.68,128.26-152.47,101.34-17.72-8.63-25.63-16.54-42.4-4.26Zm-76.18,11.34C118,254.74,71.82,213.29,71.82,165.1c0-31.06,19.25-59.52,50.9-80.66l.36-.71a16.49,16.49,0,0,1-1.54-1.42C77.25,108.53,49.38,146.8,49.38,189.43c0,80.19,88,122,143.61,127.67.12-3.3,2.6-7.2,4-10.27A11,11,0,0,1,211.65,302a9.72,9.72,0,0,1,4.49,3.9,11,11,0,0,1,11.93-1.53,10.57,10.57,0,0,1,5.91,7.91,11.43,11.43,0,0,1,6.85.94,11.08,11.08,0,0,1,6,9,10.49,10.49,0,0,1,11,15.12c-.23.47-1.41,2.12-1.18,2.24,3.43,1.42,6,2.13,8.5,2.95,5.44,1.89,11.22-4.48,5.44-9-2.36-1.89-4.84-3.9-7.21-5.79a3.68,3.68,0,0,1,0-5.08,3.58,3.58,0,0,1,5.08.36c3.66,2.71,7.44,5.55,11.1,8.26,10.28,7.8,14.65-2,8.51-6.26-3.78-2.71-7.68-5.43-11.46-8.14a3,3,0,0,1-.47-4.49c1.3-1.42,3.42-1.18,5,0,5.43,4.13,11,8.15,16.41,12.16,8.51,6.14,14.65-.82,8.39-6.49-2.83-2.48-10.87-8.39-13.94-10.63-1.53-1.18-2.48-3.07-1.41-4.61a3.73,3.73,0,0,1,5.19-.71c5.2,3.9,8.74,6.73,12.17,9.1,8.5,6,14.17-4.61,7.32-9.1-16.3-10.74-29.64-21.85-37.32-22.32-1.89-.47-5.79,2-9.92,4.84-8.15,5.44-17.72,11.81-28.58,6.26-13.7-7.2,2.83-23.26,15.12-32.95-2.48-1.06-4.85-2.12-10.63,0-23.62,9-39.33,17.48-59.41,15.59Zm59.17,56c-1.06,2-1.89,3.9-2.83,5.79a5.55,5.55,0,1,0,9.92,5c.94-1.89,1.89-3.9,2.83-5.67A5.62,5.62,0,0,0,251,327a5.48,5.48,0,0,0-7.32,2.48Zm-12.87-9.68c-1.42,2.83-2.84,5.55-4.25,8.38a6,6,0,1,0,10.74,5.32c1.42-2.72,2.84-5.55,4.25-8.39a5.9,5.9,0,0,0-2.71-8,6.08,6.08,0,0,0-8,2.72ZM218.15,311c-1.06,2.13-4.37,8.27-5.55,10.28a6.1,6.1,0,0,0,11,5.31c.95-2,4.37-8.15,5.32-10.16a6.23,6.23,0,0,0-2.72-8.15,6.16,6.16,0,0,0-8,2.72Zm-5.67,2.84a6,6,0,0,0-2.72-7.92,6.12,6.12,0,0,0-8,2.72c-.94,2-1.89,3.9-2.95,6a5.9,5.9,0,0,0,2.72,7.91,6.11,6.11,0,0,0,8-2.71c.94-1.89,1.89-4,2.95-6Z" transform="translate(-47.85 -51.73)" style="fill-rule: evenodd; fill: rgb(0, 0, 0); stroke: rgb(170, 170, 170); stroke-width: 3;"/><path class="cls-3" d="M103.35,473.35a82.38,82.38,0,0,1-18.42,1.89c-24.68,0-37.08-11.93-37.08-36,0-22.2,12.4-33.31,37.08-33.31a76.26,76.26,0,0,1,18.42,2v9.92a79.6,79.6,0,0,0-19.13-2q-24.09,0-24.09,23.38c0,17.48,8,26.1,24.09,26.1a85.93,85.93,0,0,0,19.13-1.89Zm12.29-19c0-14.29,9.33-21.38,28.11-21.38a118.37,118.37,0,0,1,18.18,1.42v-6.62c0-7.91-6.26-11.92-18.77-11.92a77,77,0,0,0-22,3.3v-9.92a77.06,77.06,0,0,1,22-3.31c20.66,0,30.94,7.21,30.94,21.5v47.83h-6.85L163,468.39a39.87,39.87,0,0,1-22.56,6.85q-24.81,0-24.8-20.9Zm28.11-11.46c-10.63,0-16,3.78-16,11.22s4.25,11.22,12.64,11.22,15.59-2.24,21.49-6.73V444.18a135.3,135.3,0,0,0-18.18-1.3Zm50.19,32.36V405.91h8.27l2.12,8.86a30.63,30.63,0,0,1,22-8.86v10.16c-8.27,0-15,2.95-20.2,8.74v50.43Z" transform="translate(-47.85 -51.73)" style="fill: rgb(34, 31, 32);"/><path class="cls-4" d="M278.85,424c-3.54-2.36-8.14-3.54-13.58-3.54-10.86,0-16.3,6.14-16.3,18.31,0,14.52,5.67,21.73,16.89,21.73a42.07,42.07,0,0,0,13-1.89Zm17.6,47.13a120.65,120.65,0,0,1-31.18,4.13c-22.44,0-33.66-11.93-33.66-36q0-33.3,32.95-33.31a34,34,0,0,1,14.29,3.31V380.76h17.6Zm45.71-65.2c21.14,0,31.65,10.75,31.65,32.25a73,73,0,0,1-.59,8.62H327.16c0,9.8,7.08,14.64,21.49,14.64a115.06,115.06,0,0,0,21-2v13.93a110.11,110.11,0,0,1-22.33,1.89c-25.15,0-37.79-11.81-37.79-35.43,0-22.56,10.87-33.9,32.6-33.9Zm-15,28.7H356.8V434c0-9.56-5-14.41-14.64-14.41-9.21,0-14.29,5-15,15Zm56.45,19c0-13.7,10-20.67,30.12-20.67a71.69,71.69,0,0,1,14.17,1.42v-5.32c0-6.14-4.49-9.33-13.35-9.33A113.28,113.28,0,0,0,389.28,423V409.22a107.2,107.2,0,0,1,25.27-3.31c20.55,0,30.95,7.56,30.95,22.8v46.53H435.22l-6.14-6.14a34.63,34.63,0,0,1-20,6.14c-17,0-25.51-7.09-25.51-21.61Zm44.29-7.44a75.8,75.8,0,0,0-14.17-1.3c-8.39,0-12.52,2.83-12.52,8.62,0,6.14,3.42,9.21,10.51,9.21a26.7,26.7,0,0,0,16.18-5.43Zm51.61-65.43v94.48h-17.6V380.76Z" transform="translate(-47.85 -51.73)" style="fill: rgb(133, 139, 139);"/><path d="M 325.83660888671875 140.8838348388672" style="fill: rgb(0, 0, 0); fill-opacity: 1; stroke: rgb(170, 170, 170); stroke-opacity: 1; stroke-width: 3; paint-order: stroke;"/></g></svg>