<?xml version="1.0" encoding="utf-8"?>
<svg id="master-artboard" xmlns="http://www.w3.org/2000/svg" viewBox="0 0 500.7658996582031 116.29449462890625" width="500.7658996582031px" height="116.29449462890625px"><rect id="ee-background" x="0" y="0" width="500.7658996582031" height="116.29449462890625" style="fill: white; fill-opacity: 0; pointer-events: none;"/><g transform="matrix(1, 0, 0, 1, 0.7658709287643433, -3.43804931640625)"><g transform="matrix(0.9083147057845192, 0, 0, 0.9083147057845192, 0.000009809222319745459, 194.05687860360402)">
	<path class="st0" d="M90.1-182.8h37.1l-8.4-15.5h-0.1c-0.8-1.4-2.4-2.3-4-2.2h-0.1c-5.1,0.2-10.9,0.2-16.9,0.3H83.4&#10;&#9;&#9;c-6-0.1-11.8-0.1-16.9-0.3h-0.1c-1.6,0-3.2,0.8-4,2.2l0,0L54-182.8H90.1z M66.8-207h-0.5c-4.1-0.1-7.9,2.1-9.9,5.7h-0.1l-10,18.5&#10;&#9;&#9;h-2.4v-4c0,0,0.1-2.1-1.2-2c-0.2,0-0.5,0-0.7,0.1c-1.9,0.6-5.2,1.5-5.2,1.5c-0.8,0.4-1.4,1.2-1.3,2.1v2.7c0,0-0.1,0.9,1.8,1.1h7.8&#10;&#9;&#9;c0,0.1-6.6,7.4-6.6,7.4s-2.5,2.2-1.8,11.2c0.7,9,1.7,31.2,1.7,31.2s-0.1,3.7,2.2,3.8h2.5l0.1,0.1h0.5l0.1-0.1h14.5&#10;&#9;&#9;c0,0.1,0.1,0.1,0.2,0.1c0.8-0.1,1.5-0.5,2-1.1c0.7-0.8,0.5-5.1,0.5-5.1s0-0.6,1.7-0.6h55.6c1.7,0,1.7,0.6,1.7,0.6s-0.2,4.2,0.5,5.1&#10;&#9;&#9;c0.5,0.6,1.2,0.9,2,1.1c0.1,0,0.2,0,0.2-0.1h14.5l0.2,0.1h0.5l0.1-0.1h2.4c2.4-0.1,2.2-3.8,2.2-3.8s0.9-22.2,1.6-31.2&#10;&#9;&#9;c0.7-9-1.6-11.2-1.6-11.2s-6.6-7.4-6.6-7.5h7.7c2-0.1,1.8-1.1,1.8-1.1v-2.7c0.1-0.9-0.5-1.8-1.3-2.1c0,0-3.3-0.9-5.2-1.5&#10;&#9;&#9;c-0.2-0.1-0.4-0.1-0.6-0.1c-1.4-0.1-1.2,2-1.2,2v4h-2.5l-10-18.5l0,0c-2-3.6-5.9-5.8-10-5.7h-0.5c-6.4,0.2-13.2,0.4-20,0.4h-7.4&#10;&#9;&#9;C80.1-206.6,73.3-206.8,66.8-207L66.8-207z M76.4-144.7c-1.3,0-2.4-1-2.4-2.3l0,0l0,0c0-1.3,1.1-2.4,2.4-2.4h28.3&#10;&#9;&#9;c1.3,0,2.3,1.1,2.3,2.4l0,0c0,1.3-1.1,2.4-2.4,2.4l0,0L76.4-144.7L76.4-144.7z M72.2-155.2c-1.5,0-2.1-1.5-2.8-3l-3.8-7.6&#10;&#9;&#9;c-0.8-1.4,1.3-3,2.8-3h44.4c1.5,0.1,3.5,1.5,2.8,3l-3.9,7.6c-0.7,1.4-1.3,3-2.8,3H72.2z M118.2-161c0.4-1.9,0.9-4.4,2.1-5.2&#10;&#9;&#9;c1.7-1.9,7.6-3.9,11.9-3.9h0.5c3.2,0.1,9.6,3.5,5.9,7c-1.1,1.1-2.5,1.8-4,2.1L118.2-161z M48.9-170.1h-0.4c-3.2,0.1-9.6,3.5-6,7&#10;&#9;&#9;c1.1,1.1,2.5,1.8,4,2.1h16.4c-0.3-1.9-0.9-4.4-2.1-5.2c-1.7-1.9-7.6-3.9-11.8-3.9L48.9-170.1z M90.8-134.2L90.8-134.2" style="fill-rule: evenodd; clip-rule: evenodd; fill: rgb(0, 0, 255);"/>
	<path class="st1" d="M89.3-118c-4.2,3.1-10.2,8-7.7,9.4c3,1.5,6.3-0.7,9-2.6c2.4-1.5,4.4-2.8,6.5-2.5c2.6,0.6,10.4,7.1,21.1,13.5&#10;&#9;&#9;c-5.7,6.6-6.1,9-4.5,9.9c3.1,1.8,19-4.5,22.1-6.1c18.3-7.1,32.6-18.4,39.9-32c3.4-6.4,5.3-13.3,5.3-20.5c0-18-11.8-34.1-30.5-45.2&#10;&#9;&#9;c-0.2,0.2-0.4,0.4-0.7,0.6c0.1,0.1,0.1,0.2,0.2,0.4c13.3,9,21.5,20.9,21.5,34.1c0,26.4-41.3,54.1-64.5,42.7&#10;&#9;&#9;C99.7-119.9,96.4-123.3,89.3-118L89.3-118z M57.2-113.4C29-121.2,9.4-138.7,9.4-159c0-13.2,8.3-25.2,21.6-34.1c0-0.1,0-0.3,0.1-0.4&#10;&#9;&#9;c-0.3-0.2-0.5-0.4-0.7-0.6C11.8-183,0-166.8,0-148.9c0,33.9,37.2,51.6,60.7,54c0-1.4,1.1-3.1,1.7-4.4c1.2-2.3,4-3.2,6.3-2&#10;&#9;&#9;c0.8,0.4,1.4,0.9,1.9,1.7c1.4-1.2,3.3-1.5,5-0.7c1.4,0.7,2.3,1.9,2.6,3.4c1-0.2,2-0.1,2.8,0.4c1.4,0.7,2.4,2.2,2.6,3.8&#10;&#9;&#9;c0.9-0.1,1.8,0,2.6,0.5c2.1,1.1,3,3.7,2,5.9c-0.1,0.2-0.6,0.9-0.5,0.9c1.4,0.6,2.5,0.9,3.5,1.3c2.2,0.8,4.7-1.9,2.4-3.8l-3.2-2.5&#10;&#9;&#9;c-0.5-0.6-0.5-1.5,0-2.1C91-93,92-93,92.6-92.4l4.6,3.5c4.4,3.2,6.3-0.8,3.7-2.7c-1.6-1.2-3.2-2.2-4.8-3.4&#10;&#9;&#9;c-0.6-0.4-0.7-1.3-0.2-1.9c0.6-0.5,1.5-0.5,2.1,0c2.2,1.8,4.6,3.4,7,5.2c3.5,2.5,6.1-0.4,3.4-2.7c-1.2-1.1-4.5-3.5-5.8-4.6&#10;&#9;&#9;c-0.7-0.5-1.1-1.3-0.6-1.9c0.5-0.7,1.4-0.9,2.1-0.4c2.2,1.6,3.8,2.8,5.2,3.9c3.5,2.5,6-2,3.1-3.9c-6.9-4.5-12.5-9.2-15.7-9.4&#10;&#9;&#9;c-0.8-0.1-2.5,1-4.2,2.1c-3.4,2.2-7.4,5-12,2.6c-5.8-3.1,1.2-9.8,6.4-13.9c-1.4-0.6-3.1-0.6-4.5,0c-10,3.8-16.6,7.4-25,6.6&#10;&#9;&#9;L57.2-113.4z M82.1-89.6c-0.4,0.8-0.8,1.6-1.2,2.4C80.3-86,80.8-84.6,82-84c1.2,0.5,2.6,0.1,3.2-1.1c0.3-0.9,0.7-1.7,1.2-2.5&#10;&#9;&#9;c0.5-1.2,0-2.5-1.2-3.1C84-91.2,82.6-90.8,82.1-89.6L82.1-89.6z M76.6-93.7l-1.8,3.5c-0.6,1.2-0.2,2.8,1.1,3.4&#10;&#9;&#9;c1.3,0.6,2.8,0.1,3.4-1.2l1.8-3.5c0.7-1.2,0.2-2.8-1.1-3.4C78.8-95.6,77.3-95,76.6-93.7z M71.3-97.5c-0.5,0.9-1.9,3.5-2.4,4.4&#10;&#9;&#9;c-0.6,1.3-0.1,2.8,1.2,3.4c1.3,0.6,2.8,0.1,3.4-1.2c0.5-0.8,1.9-3.4,2.2-4.4c0.6-1.2,0.1-2.7-1.2-3.3&#10;&#9;&#9;C73.4-99.2,71.9-98.8,71.3-97.5L71.3-97.5z M68.9-96.4c0.6-1.2,0.1-2.7-1.1-3.3c-1.3-0.6-2.8-0.1-3.4,1.2c-0.3,0.8-0.8,1.6-1.2,2.5&#10;&#9;&#9;c-0.6,1.2-0.1,2.7,1.1,3.4c1.3,0.5,2.8,0,3.4-1.2C68-94.6,68.5-95.5,68.9-96.4L68.9-96.4z" style="fill-rule: evenodd; clip-rule: evenodd; fill: rgb(173, 181, 189); stroke: rgb(229, 229, 229); stroke-width: 0.825; stroke-miterlimit: 3.3002;"/>
	<path class="st2" d="M249.3-109.2c-4.9,1.1-9.9,1.7-14.9,1.6c-19.7,0-29.6-9.7-29.6-28.8c0-17.8,9.9-26.8,29.6-26.8&#10;&#9;&#9;c5,0,10,0.5,14.9,1.7v7.9c-5-1.1-10.2-1.7-15.4-1.6c-12.9,0-19.4,6.4-19.4,18.9c0,13.9,6.5,20.9,19.4,20.9c5.2,0,10.3-0.5,15.4-1.7&#10;&#9;&#9;V-109.2z M259.1-124.3c0-11.4,7.4-17.1,22.4-17.1c4.9,0,9.7,0.4,14.5,1.1v-5.2c0-6.4-5-9.7-15-9.7c-5.9,0.1-11.8,1-17.5,2.7v-7.9&#10;&#9;&#9;c5.7-1.7,11.6-2.7,17.5-2.7c16.5,0,24.8,5.8,24.8,17.2v38.4h-5.4l-3.4-5.6c-5.3,3.6-11.6,5.5-18.1,5.5&#10;&#9;&#9;C265.7-107.5,259.1-113.2,259.1-124.3L259.1-124.3z M281.6-133.5c-8.5,0-12.8,3.1-12.8,9c0,5.9,3.4,9.1,10.2,9.1&#10;&#9;&#9;c6.2,0.1,12.2-1.8,17.1-5.4v-11.6C291.3-133.2,286.4-133.5,281.6-133.5z M321.8-107.5v-55.6h6.6l1.6,7.1c4.7-4.6,11-7.2,17.6-7.1&#10;&#9;&#9;v8.1c-6.2-0.2-12.1,2.4-16.2,7.1v40.4L321.8-107.5z" style="fill: rgb(173, 181, 189);"/>
	<path class="st3" d="M389.9-148.6c-3.3-2-7.1-3-11-2.8c-8.7,0-13.1,4.8-13.1,14.6c0,11.6,4.6,17.5,13.7,17.5c3.5,0,7-0.5,10.4-1.5&#10;&#9;&#9;V-148.6z M403.8-110.8c-8.1,2.1-16.5,3.2-24.9,3.3c-18,0-26.9-9.7-26.9-28.9c0-17.7,8.7-26.7,26.3-26.7c4,0.1,7.9,1,11.6,2.7v-22.8&#10;&#9;&#9;h13.9V-110.8z M440.5-163.2c16.9,0,25.3,8.6,25.3,25.9c0,2.3-0.1,4.6-0.5,6.8h-36.8c0,7.9,5.7,11.8,17.2,11.8&#10;&#9;&#9;c5.6,0,11.2-0.6,16.8-1.7v11.1c-5.9,1.2-11.8,1.7-17.8,1.7c-20.2,0-30.2-9.4-30.2-28.5C414.4-154.1,423-163.2,440.5-163.2z&#10;&#9;&#9; M428.5-140.2h23.6v-0.5c0-7.7-3.8-11.4-11.6-11.4C433.1-152.1,429.1-148.2,428.5-140.2z M473.7-124.9c0-11,8-16.5,24.1-16.5&#10;&#9;&#9;c3.8,0,7.6,0.4,11.3,1.1v-4.1c0-5-3.5-7.6-10.7-7.6c-6.8,0.1-13.6,1-20.2,2.7v-11.1c6.6-1.7,13.4-2.6,20.2-2.7&#10;&#9;&#9;c16.5,0,24.8,6.1,24.8,18.3v37.3H515l-5.1-5c-4.7,3.3-10.2,5.1-15.9,5C480.4-107.5,473.7-113.3,473.7-124.9L473.7-124.9z&#10;&#9;&#9; M509.1-130.8c-3.7-0.7-7.5-1.1-11.3-1.1c-6.7,0-10.2,2.2-10.2,6.8c0,5,2.8,7.4,8.5,7.4c4.7,0,9.2-1.6,13-4.4V-130.8z M550.5-183.3&#10;&#9;&#9;v75.7h-14.1v-75.7H550.5z" style="fill: rgb(0, 0, 255);"/>
	<path class="st4" d="M85.2-16.8" style="fill: rgb(11, 46, 77); stroke: rgb(170, 170, 170); stroke-width: 0.825; stroke-miterlimit: 3.3002;"/>
	<path class="st4" d="M193-26.3" style="fill: rgb(11, 46, 77); stroke: rgb(170, 170, 170); stroke-width: 0.825; stroke-miterlimit: 3.3002;"/>
	<path class="st4" d="M156.1-119.7L156.1-119.7" style="fill: rgb(11, 46, 77); stroke: rgb(170, 170, 170); stroke-width: 0.825; stroke-miterlimit: 3.3002;"/>
</g></g></svg>